<?xml version="1.0" encoding="UTF-8"?>
<svg id="Layer_2" data-name="Layer 2" xmlns="http://www.w3.org/2000/svg" xmlns:xlink="http://www.w3.org/1999/xlink" viewBox="0 0 1147.15 932">
  <defs>
    <style>
      .cls-1 {
        fill: url(#linear-gradient);
      }
    </style>
    <linearGradient id="linear-gradient" x1="0" y1="466" x2="1147.15" y2="466" gradientUnits="userSpaceOnUse">
      <stop offset="0" stop-color="#16603b"/>
      <stop offset=".5" stop-color="#d6a93f"/>
      <stop offset="1" stop-color="#16603b"/>
    </linearGradient>
  </defs>
  <g id="Layer_1-2" data-name="Layer 1">
    <path class="cls-1" d="M1052.74,932h-209.67c-52.06,0-94.41-42.35-94.41-94.41v-388.18c0-39.37-32.03-71.4-71.41-71.4h-207.61c-39.37,0-71.41,32.03-71.41,71.4v215.18c0,52.06-42.35,94.41-94.41,94.41H94.41c-52.06,0-94.41-42.35-94.41-94.41V94.41C0,42.35,42.35,0,94.41,0h958.34c52.05,0,94.41,42.35,94.41,94.41v743.19c0,52.06-42.35,94.41-94.41,94.41ZM469.65,375.01h207.61c41.03,0,74.41,33.38,74.41,74.4v388.18c0,50.4,41,91.41,91.41,91.41h209.67c50.4,0,91.41-41,91.41-91.41V94.41c0-50.4-41-91.41-91.41-91.41H94.41C44,3,3,44,3,94.41v570.19c0,50.4,41,91.41,91.41,91.41h209.43c50.4,0,91.41-41,91.41-91.41v-215.18c0-41.03,33.38-74.4,74.41-74.4ZM1052.74,912h-209.67c-41.03,0-74.41-33.38-74.41-74.41v-388.18c0-50.4-41-91.4-91.41-91.4h-207.61c-50.4,0-91.41,41-91.41,91.4v215.18c0,41.03-33.38,74.41-74.41,74.41H94.41c-41.03,0-74.41-33.38-74.41-74.41V94.41c0-41.03,33.38-74.41,74.41-74.41h958.34c41.03,0,74.41,33.38,74.41,74.41v743.19c0,41.03-33.38,74.41-74.41,74.41ZM469.65,355.01h207.61c52.06,0,94.41,42.35,94.41,94.4v388.18c0,39.37,32.03,71.41,71.41,71.41h209.67c39.37,0,71.41-32.03,71.41-71.41V94.41c0-39.37-32.03-71.41-71.41-71.41H94.41c-39.37,0-71.41,32.03-71.41,71.41v570.19c0,39.37,32.03,71.41,71.41,71.41h209.43c39.37,0,71.41-32.03,71.41-71.41v-215.18c0-52.05,42.35-94.4,94.41-94.4Z"/>
  </g>
</svg>